<svg xmlns="http://www.w3.org/2000/svg" viewBox="0 0 626.272 468.911"><defs><style>.a{fill:none;stroke:#fff;stroke-miterlimit:10;}</style></defs><title>404</title><path class="a" d="M203.542,1.41V142.9h19.793v18.456H203.542v37.981c0,11.234.535,19.793,10.7,26.747h-67.4c10.164-6.954,10.7-15.513,10.7-26.747V161.625H73.551Zm-46.272,73.02-55.9,68.473h55.9Z"/><path class="a" d="M397.728,119.1c0,58.843-26.747,111.535-78.9,111.535s-78.9-52.692-78.9-111.535S266.668,7.562,318.824,7.562,397.728,60.254,397.728,119.1ZM288.6,164.567c0,32.1,4.012,58.042,30.224,58.042s30.224-25.945,30.224-58.042V73.627c0-32.1-4.012-58.042-30.224-58.042S288.6,41.53,288.6,73.627Z"/><path class="a" d="M533.6,1.41V142.9H553.4v18.456H533.6v37.981c0,11.234.535,19.793,10.7,26.747H476.9c10.164-6.954,10.7-15.513,10.7-26.747V161.625H403.613Zm-46.272,73.02L431.43,142.9h55.9Z"/><path class="a" d="M66.58,336.085c0,5,0,7,3.5,10h-22.2c3.5-3,3.5-5,3.5-10v-61.5c0-3.9-1.6-6-5-6s-5,2.1-5,6v61.5c0,4.2.2,7.4,4,10h-25.2c3.8-2.6,4-5.8,4-10v-61c0-4-1.5-6.5-5-6.5-9.5,0-16,14-18,19.5l4-28c2.5,3.5,6.1,5,11.1,5h39.2c5,0,8.6-1.5,11.1-5v41a20.786,20.786,0,0,1,15-6.5c6,0,11.5,3.5,11.5,10v31.5c0,5,0,7,3.5,10h-22.2c3.5-3,3.5-5,3.5-10v-27.5c0-4-2-6.5-6-6.5a7.9,7.9,0,0,0-5.3,2Z"/><path class="a" d="M119.978,292.082v44c0,5,0,7,3.5,10h-22.2c3.5-3,3.5-5,3.5-10v-23.7c0-4.8-.6-7.7-5.5-10C108.178,302.383,115.978,298.583,119.978,292.082Zm-9.4-21a9.4,9.4,0,1,1-9.4,9.4A9.39,9.39,0,0,1,110.577,271.081Z"/><path class="a" d="M136.777,303.583c0,4.5,4.1,6.2,8.4,7.9l7.8,3.1c7.9,3.1,11.9,8,11.9,15,0,11-7.5,18.2-21,18.2-8,0-14.5-2.7-17.2-4.7l5.9-13.6c0,.1,3.3,15.1,13.3,15.1,5.5,0,8-3.5,8-8,0-5-3.8-7.3-9.7-9.7l-7.3-3c-6.2-2.6-8.8-7.3-8.8-13,0-9.3,7.3-16.3,18.5-16.3a35.437,35.437,0,0,1,15,3.1l-4.7,12.2c0-.1-3.5-12.3-13.1-12.3C139.477,297.583,136.777,299.983,136.777,303.583Z"/><path class="a" d="M202.275,275.081c0-4.2-.2-7.4-4-10h29.5c16.5,0,29,6.7,29,22.2s-12.5,22.2-29,22.2h-8.3v26.6c0,4.2.2,7.4,4,10h-25.2c3.8-2.6,4-5.8,4-10Zm17.2,30.9h5.8c10,0,14.3-8.7,14.3-18.7s-2.3-19.2-12.3-19.2c-5,0-7.8,3-7.8,8Z"/><path class="a" d="M285.975,347.786a10.447,10.447,0,0,1-9.9-6.2c-2.1,4-5,6.2-11.3,6.2-9.8,0-13.8-5.7-13.8-14.8,0-10.9,6.2-13.8,11.5-15.3,4.7-1.3,12.7-2.5,12.7-7.7,0-5.3-4.8-7.4-9.3-7.4-3,0-6.2.8-10.3,5,3.9-8.5,9.7-13,19.4-13,8.2,0,15.4,5.5,15.4,12.5v29c0,3.5,1.6,5,5.1,5C294.675,344.885,290.975,347.786,285.975,347.786Zm-10.8-31.9c-6.1,3.5-9.7,6.7-9.7,15.1,0,9.1,2.1,11.7,5.3,11.7a4.253,4.253,0,0,0,4.4-4.6Z"/><path class="a" d="M311.574,327.384l-1.7,3.2h12c8.7,0,19.1,4.5,19.1,16.4,0,12.1-10.4,18.1-22.4,18.1-11,0-18.9-4-18.9-11.6a9.265,9.265,0,0,1,9.4-9.4c5.7,0,9.4,4.2,9.4,8.9a8.9,8.9,0,0,1-.6,3.3,4.641,4.641,0,0,0-.4,1.9c0,2.3,2.3,3.4,5.3,3.4,4.8,0,8-3,8-9,0-7-4.9-10.4-13.9-10.4h-17.1l9.1-16c-4.9-2.5-8.9-6.9-8.9-14.1,0-13,13.2-17,21.2-17h19.1v3.5h-5.7a14.991,14.991,0,0,1,7.8,13.5c0,13-10.9,16.9-21.2,16.9A28.79,28.79,0,0,1,311.574,327.384Zm9.6-.9c5,0,7-3.9,7-9.4v-10c0-5.5-2-9.6-7-9.6s-7,4.1-7,9.6v10C314.174,322.584,316.174,326.485,321.174,326.485Z"/><path class="a" d="M361.073,322.384c3.1,7,8.8,16,19,16,3.9,0,6.8-1,9.3-3.3-3.6,8.2-9.8,12.7-19,12.7-14.7,0-22.5-13.9-22.6-27.3,0-13.2,8.1-26.1,21.6-26.1a20.169,20.169,0,0,1,17.9,11.9Zm8.3-8.7c2-1.2,4-2.4,4-4.7,0-4.4-3.3-10.5-9-10.5-3.4,0-7,2.9-7,9.1a29.443,29.443,0,0,0,2.4,11.9Z"/><path class="a" d="M448.673,265.081c25,0,36,19.5,36,42s-10,39-36,39h-27.9c4-1.5,5-4.5,5-9v-63c0-4.5-1-7.5-5-9Zm-5.7,70.5c0,5,2.8,7.5,7.5,7.5,14.7,0,16.7-20,16.7-36,0-17-4.5-39-16.9-39-4.5,0-7.3,3-7.3,8Z"/><path class="a" d="M537.574,321.084c0,16-9.6,26.5-23.6,26.5s-23.6-10.5-23.6-26.5c0-15,9.6-26.5,23.6-26.5S537.574,306.083,537.574,321.084Zm-32,11c0,7,1.9,12.5,8.4,12.5s8.4-5.5,8.4-12.5v-22c0-7-1.9-12.5-8.4-12.5s-8.4,5.5-8.4,12.5Z"/><path class="a" d="M557.07,322.384c3.1,7,8.8,16,19,16,3.9,0,6.8-1,9.3-3.3-3.6,8.2-9.8,12.7-19,12.7-14.7,0-22.5-13.9-22.6-27.3,0-13.2,8.1-26.1,21.6-26.1a20.169,20.169,0,0,1,17.9,11.9Zm8.3-8.7c2-1.2,4-2.4,4-4.7,0-4.4-3.3-10.5-9-10.5-3.4,0-7,2.9-7,9.1a29.443,29.443,0,0,0,2.4,11.9Z"/><path class="a" d="M597.67,303.583c0,4.5,4.1,6.2,8.4,7.9l7.8,3.1c7.9,3.1,11.9,8,11.9,15,0,11-7.5,18.2-21,18.2-8,0-14.5-2.7-17.2-4.7l5.9-13.6c0,.1,3.3,15.1,13.3,15.1,5.5,0,8-3.5,8-8,0-5-3.8-7.3-9.7-9.7l-7.3-3c-6.2-2.6-8.8-7.3-8.8-13,0-9.3,7.3-16.3,18.5-16.3a35.437,35.437,0,0,1,15,3.1l-4.7,12.2c0-.1-3.5-12.3-13.1-12.3C600.37,297.583,597.67,299.983,597.67,303.583Z"/><path class="a" d="M143.576,385.081l24.9,42.7v-31.5c0-5.1-.8-8.1-5.6-11.2h15.7c-4.8,3.1-5.6,6.1-5.6,11.2v70.8l-41.4-69.9v57.7c0,5.1.8,8.1,5.6,11.2h-15.7c4.8-3.1,5.6-6.1,5.6-11.2v-58.5c0-5.1-.8-8.2-5.6-11.3Z"/><path class="a" d="M227.678,441.084c0,16-9.6,26.5-23.6,26.5s-23.6-10.5-23.6-26.5c0-15,9.6-26.5,23.6-26.5S227.678,426.083,227.678,441.084Zm-32,11c0,7,1.9,12.5,8.4,12.5s8.4-5.5,8.4-12.5v-22c0-7-1.9-12.5-8.4-12.5s-8.4,5.5-8.4,12.5Z"/><path class="a" d="M228.874,418.583l21.2-22.5v19h7.4v3.5h-7.4v30.2c0,5.5.3,11.2,6.6,11.2,2.7,0,5.7-1.2,7.4-6.2,0,9.5-5.6,14-14.2,14-10,0-15-7.5-15-19v-30.2Z"/><path class="a" d="M317.175,396.081v21.5h3.8c7.8,0,12.3-.5,15.8-8v20.2c-3.5-7.7-8-8.2-15.8-8.2h-3.8v34c0,5,2.8,7.5,7.5,7.5,12,0,24.5-12.3,27.8-19.6l-6.9,22.6h-50.6c4-1.5,5-4.5,5-9v-64.7a7.867,7.867,0,0,0-4-7.3h35.3c5,0,8.6-1.5,11.1-5l6.1,22c-.5-.9-9.2-14-23.5-14C319.675,388.081,317.175,391.081,317.175,396.081Z"/><path class="a" d="M369.974,445.584l-12.7-22.5c-2-3.5-3.4-6-7.6-8h26.6c-2.1,1-3,2.5-3,4.2a5.962,5.962,0,0,0,.8,2.8l5.4,9.7,6.1-8.7a6.616,6.616,0,0,0,1.3-3.6c0-1.5-.8-3-2.7-4.4h17.1c-6.7,1.5-9.9,5.5-13,10l-6.9,10,11.2,20c3.1,5.5,5,8.5,10.4,11h-26.8a3.819,3.819,0,0,0,2.1-3.6,9.279,9.279,0,0,0-1.3-4.4l-5.2-9.2-6.4,9.2a7.9,7.9,0,0,0-1.6,4.2,4.841,4.841,0,0,0,2,3.8h-16c6.3-2,10.2-6,13.6-11Z"/><path class="a" d="M424.374,412.082v44c0,5,0,7,3.5,10h-22.2c3.5-3,3.5-5,3.5-10v-23.7c0-4.8-.6-7.7-5.5-10C412.573,422.383,420.373,418.583,424.374,412.082Zm-9.4-21a9.4,9.4,0,1,1-9.4,9.4A9.39,9.39,0,0,1,414.973,391.081Z"/><path class="a" d="M441.173,423.583c0,4.5,4.1,6.2,8.4,7.9l7.8,3.1c7.9,3.1,11.9,8,11.9,15,0,11-7.5,18.2-21,18.2-8,0-14.5-2.7-17.2-4.7l5.9-13.6c0,.1,3.3,15.1,13.3,15.1,5.5,0,8-3.5,8-8,0-5-3.8-7.3-9.7-9.7l-7.3-3c-6.2-2.6-8.8-7.3-8.8-13,0-9.3,7.3-16.3,18.5-16.3a35.437,35.437,0,0,1,15,3.1l-4.7,12.2c0-.1-3.5-12.3-13.1-12.3C443.873,417.583,441.173,419.983,441.173,423.583Z"/><path class="a" d="M470.471,418.583l21.2-22.5v19h7.4v3.5h-7.4v30.2c0,5.5.3,11.2,6.6,11.2,2.7,0,5.7-1.2,7.4-6.2,0,9.5-5.6,14-14.2,14-10,0-15-7.5-15-19v-30.2Z"/><path class="a" d="M521.771,448.185a9.4,9.4,0,1,1-9.4,9.4A9.39,9.39,0,0,1,521.771,448.185Z"/></svg>