<svg xmlns="http://www.w3.org/2000/svg" viewBox="0 0 609.556 78.789"><defs><style>.a{fill:none;stroke:#fff;stroke-miterlimit:10;}</style></defs><title>night-shift-assets</title><path class="a" d="M56.351,78.188C7.444,78.188.5,55.546.5,40.652V37.634C.5,22.539,6.94.5,56.351.5h3.723c47.8,0,54.14,20.73,54.241,31.1V33H79.6c-.5-1.812-2.616-10.365-21.837-10.365-18.617,0-22.24,8.252-22.24,15.6v1.208c0,7.145,4.025,16.4,22.34,16.4,19.623,0,21.435-9.358,21.736-11.069h34.718v2.113c0,10.265-6.542,31.3-54.241,31.3Z"/><path class="a" d="M118.951,50.213V48.6c0-10.365,5.032-27.473,43.272-27.473h8.05c39.347,0,43.171,17.107,43.171,27.473v1.61c0,10.566-3.824,28.076-43.372,28.076h-7.749C123.882,78.289,118.951,60.779,118.951,50.213Zm33.007-1.107v.1c0,5.334,2.516,12.78,14.088,12.78h.3c11.472,0,14.089-7.547,14.089-12.78v-.1c0-5.031-2.617-11.773-14.089-11.773h-.3C154.575,37.332,151.958,43.974,151.958,49.105Z"/><path class="a" d="M219.689,22.64h32.4V32.5c2.415-2.415,11.472-11.069,29.083-11.069h.6c21.736,0,26.667,13.082,26.667,20.026V76.779h-32.5V51.822c0-6.138-2.817-11.271-11.573-11.271-8.352,0-12.176,5.233-12.176,11.472V76.779h-32.5Z"/><path class="a" d="M338.845,76.779c-8.755,0-15.3-4.227-15.3-15.5V41.055H313.385V22.64h10.164V6.84h32.4v15.8h10.063V41.055H355.952V53.131c0,3.724.705,4.931,4.73,4.931h5.333V76.779Z"/><path class="a" d="M396.51,77.785H395.7c-18.113,0-24.956-8.554-24.956-17.107v-1.71c0-8.151,5.032-13.787,21.032-15.2l27.473-2.314c2.113-.2,2.717-1.107,2.717-2.315v-.1c0-1.811-1.309-3.723-9.459-3.723h-.3c-9.459,0-9.762,3.421-9.963,4.931H372.056v-.905c0-7.447,2.416-18.114,37.234-18.114h5.736c36.529,0,38.943,10.667,38.943,17.51V57.86c0,1.309.5,2.013,1.813,2.013H458.9V76.779H431.228c-5.232,0-8.252-2.717-8.956-7.044C419.554,72.352,412.007,77.785,396.51,77.785ZM421.868,51.42l-14.49,3.12c-3.521.8-5.232,1.811-5.232,4.227v.1c0,2.214,1.609,4.931,7.145,4.931,7.949,0,12.578-4.528,12.578-9.358Z"/><path class="a" d="M504.292,78.289c-38.945,0-42.165-17.611-42.165-28.076V48.6c0-10.265,3.12-27.473,42.063-27.473h6.743c38.441,0,41.661,17.107,41.661,24.655v.3H519.487c-.2-1.912-1.61-8.956-11.976-8.956h-.4c-9.962,0-11.976,6.238-11.976,11.673v.3c0,5.938,2.014,12.881,11.976,12.881h.4c10.265,0,11.875-7.547,11.976-9.459h33.107v.3c0,7.044-2.314,25.46-41.762,25.46Z"/><path class="a" d="M581.885,76.779c-8.755,0-15.3-4.227-15.3-15.5V41.055H556.425V22.64h10.164V6.84h32.4v15.8h10.063V41.055H598.992V53.131c0,3.724.7,4.931,4.729,4.931h5.334V76.779Z"/></svg>