<svg xmlns="http://www.w3.org/2000/svg" viewBox="0 0 285.609 316.395"><defs><style>.a{fill:none;stroke:#fff;stroke-miterlimit:10;}</style></defs><title>night-shift-assets</title><path class="a" d="M43.272,315.9c.285-16.82,9.408-23.092,9.408-23.092,26.8,3.706,32.784,1.425,36.49,0s6.557-9.123,7.412-12.829,1.425-17.1,4.276-23.377,8.838-11.4,8.838-11.4c-.285-8.838-11.688-14.539-11.688-14.539a26.579,26.579,0,0,0,14.254-6.557c2.851-2.851.855-7.412-3.421-15.965S106.56,193.6,106.56,193.6s26.228-9.693,21.381-21.666c-8.232-20.339-25.087-18.245-30.5-46.468-3.258-16.977,6.272-48.749-13.3-69.085C62.229,33.62,25.6,33.665,12.673,25.207.841,17.464.51.5.51.5H285.1s-.331,16.964-12.163,24.707c-12.924,8.457-49.555,8.413-71.46,31.169-19.576,20.336-10.046,52.108-13.3,69.085-5.417,28.223-22.271,26.129-30.5,46.468C152.821,183.9,179.049,193.6,179.049,193.6s2,5.987-2.281,14.539-6.272,13.114-3.421,15.965a26.579,26.579,0,0,0,14.254,6.557s-11.4,5.7-11.688,14.539c0,0,5.987,5.131,8.838,11.4s3.421,19.671,4.276,23.377,3.706,11.4,7.412,12.829,9.693,3.706,36.49,0c0,0,9.123,6.272,9.408,23.092Z"/></svg>