<svg xmlns="http://www.w3.org/2000/svg" viewBox="0 0 94.789 1028.918"><defs><style>.a{fill:none;stroke:#fff;stroke-miterlimit:10;}</style></defs><title>night-shift-assets</title><path class="a" d="M94.289.5V57.457c0,42.869-16.806,55.146-35.422,55.146h-3.12c-17.812,0-36.328-9.862-36.328-55.146V.5ZM41.055,34.412V52.325c0,23.045,10.365,25.058,15.8,25.058h.6c5.334,0,15.2-2.113,15.2-25.058V34.412Z"/><path class="a" d="M17.91,165.744v-4.831c0-37.937,16.905-42.566,28.176-42.566H47.7c11.171,0,27.372,4.528,27.372,42.466v4.831c0,39.347-17.107,43.07-29.888,43.07H43.067V150.348c-4.729.5-9.358,3.723-9.358,13.484,0,11.17,4.83,12.579,5.938,12.78v32h-.1C31.8,208.613,17.91,204.286,17.91,165.744Zm43.07-2.214c0-9.359-3.02-12.177-6.944-12.981v25.862C58.062,175.706,60.98,172.486,60.98,163.53Z"/><path class="a" d="M73.559,207.412v34.819l-33.51,12.075,33.51,11.473v33.812l-54.14-22.642V231.161Z"/><path class="a" d="M17.91,346.19v-4.831c0-37.937,16.905-42.566,28.176-42.566H47.7c11.171,0,27.372,4.528,27.372,42.466v4.831c0,39.347-17.107,43.07-29.888,43.07H43.067V330.794c-4.729.5-9.358,3.723-9.358,13.484,0,11.17,4.83,12.579,5.938,12.78v32h-.1C31.8,389.06,17.91,384.732,17.91,346.19Zm43.07-2.214c0-9.359-3.02-12.177-6.944-12.981v25.862C58.062,356.152,60.98,352.933,60.98,343.977Z"/><path class="a" d="M19.419,428.815v-32.5h74.87v32.5Z"/><path class="a" d="M45.986,436.164H47.6c10.365,0,27.473,5.031,27.473,43.271v8.051c0,39.346-17.107,43.17-27.473,43.17H45.986c-10.566,0-28.076-3.824-28.076-43.373v-7.748C17.91,441.095,35.42,436.164,45.986,436.164Zm1.106,33.007h-.1c-5.334,0-12.78,2.516-12.78,14.089v.3c0,11.472,7.548,14.088,12.78,14.088h.1c5.031,0,11.774-2.616,11.774-14.088v-.3C58.867,471.787,52.225,469.171,47.093,469.171Z"/><path class="a" d="M73.559,570.413H66.213c1.711,1.912,8.051,10.164,8.051,25.258v2.516c0,25.158-13.484,31.4-25.662,31.4H46.188c-12.781,0-27.473-6.943-27.473-32.4v-2.314c0-14.391,4.931-22.541,6.238-24.453H.5v-32.5H73.559Zm-27.271,0c-5.132,0-11.572,3.723-11.572,13.484v.5c0,9.561,6.541,12.176,11.473,12.176h.4c5.434,0,11.673-2.615,11.673-12.176v-.5c0-9.861-5.937-13.484-11.573-13.484Z"/><path class="a" d="M19.419,636.936h54.14v32.4H63.6c2.517,2.516,11.171,10.969,11.171,27.875v.5c0,13.686-5.837,20.227-11.673,23.145a41.669,41.669,0,0,1,11.673,29.686v.5c0,20.73-13.284,25.258-20.026,25.258H19.419v-32.5H44.576c6.039,0,11.07-2.314,11.07-9.961,0-7.447-5.232-10.971-11.271-10.971H19.419v-32.5H44.576c6.039,0,11.07-2.314,11.07-9.961,0-7.447-5.232-10.969-11.271-10.969H19.419Z"/><path class="a" d="M17.91,830.963v-4.83c0-37.937,16.905-42.566,28.176-42.566H47.7c11.171,0,27.372,4.527,27.372,42.465v4.832c0,39.346-17.107,43.07-29.888,43.07H43.067V815.567c-4.729.5-9.358,3.723-9.358,13.484,0,11.17,4.83,12.58,5.938,12.781v32h-.1C31.8,873.833,17.91,869.506,17.91,830.963Zm43.07-2.213c0-9.359-3.02-12.178-6.944-12.982v25.863C58.062,840.926,60.98,837.706,60.98,828.75Z"/><path class="a" d="M73.559,881.084v32.4H63.7c2.415,2.416,11.069,11.473,11.069,29.082v.6c0,21.736-13.083,26.668-20.026,26.668H19.419v-32.5H44.375c6.139,0,11.271-2.818,11.271-11.572,0-8.354-5.232-12.176-11.473-12.176H19.419V881.084Z"/><path class="a" d="M19.419,1001.247c0-8.754,4.227-15.295,15.5-15.295H55.143V975.788H73.559v10.164h15.8v32.4h-15.8v10.064H55.143v-10.064H43.067c-3.724,0-4.931.705-4.931,4.73v5.334H19.419Z"/></svg>