<svg xmlns="http://www.w3.org/2000/svg" viewBox="0 0 688.958 601.219"><defs><style>.a{fill:none;stroke:#fff;stroke-miterlimit:10;}</style></defs><title>night-shift-assets</title><path class="a" d="M75.7,1.766l83.376,142.98V39.269c0-17.077-2.679-27.123-18.751-37.5h52.571c-16.073,10.38-18.752,20.425-18.752,37.5V276.34L35.515,42.283V235.488c0,17.078,2.679,27.123,18.752,37.5H1.7c16.073-10.38,18.751-20.425,18.751-37.5V39.6c0-17.077-2.679-27.458-18.751-37.838Z"/><path class="a" d="M253.836,92.175V239.507c0,16.742,0,23.439,11.72,33.485H191.22c11.72-10.045,11.72-16.743,11.72-33.485V160.149c0-16.073-2.009-25.783-18.416-33.485C214.324,126.664,240.442,113.94,253.836,92.175ZM222.361,21.857a31.475,31.475,0,1,1-31.476,31.476A31.439,31.439,0,0,1,222.361,21.857Z"/><path class="a" d="M308.746,210.376l-5.692,10.715h40.181c29.132,0,63.956,15.068,63.956,54.915,0,40.516-34.824,60.607-75.006,60.607-36.833,0-63.286-13.394-63.286-38.843a31.021,31.021,0,0,1,31.476-31.476c19.086,0,31.476,14.064,31.476,29.8a29.791,29.791,0,0,1-2.009,11.049,15.525,15.525,0,0,0-1.34,6.362c0,7.7,7.7,11.385,17.747,11.385,16.073,0,26.788-10.045,26.788-30.135,0-23.44-16.407-34.825-46.544-34.825H269.234l30.471-53.575c-16.407-8.371-29.8-23.1-29.8-47.213,0-43.53,44.2-56.924,70.988-56.924h63.956v11.72H385.761c14.733,8.705,26.118,23.1,26.118,45.2,0,43.53-36.5,56.589-70.987,56.589A96.413,96.413,0,0,1,308.746,210.376Zm32.145-3.014c16.742,0,23.439-13.059,23.439-31.476V142.4c0-18.416-6.7-32.145-23.439-32.145s-23.44,13.729-23.44,32.145v33.485C317.452,194.3,324.149,207.362,340.892,207.362Z"/><path class="a" d="M476.836,1.766V121.641c13.394-13.394,30.136-21.765,50.227-21.765S565.57,111.6,565.57,133.36V239.507c0,16.742,0,23.439,11.72,33.485H502.953c11.72-10.045,11.72-16.743,11.72-33.485V146.755c0-13.395-6.7-21.765-20.091-21.765a26.467,26.467,0,0,0-17.747,6.7v107.82c0,16.742,0,23.439,11.72,33.485H414.219c11.72-10.045,11.72-16.743,11.72-33.485V69.74c0-16.073-2.009-25.783-18.416-33.485C437.324,36.255,463.442,23.531,476.836,1.766Z"/><path class="a" d="M570.592,113.94,641.58,38.6V102.22h24.778v11.72H641.58V215.063c0,18.416,1,37.5,22.1,37.5,9.041,0,19.086-4.019,24.778-20.761,0,31.81-18.751,46.878-47.548,46.878-33.485,0-50.227-25.114-50.227-63.621V113.94Z"/><path class="a" d="M70.508,366.661c0,22.769,12.054,35.829,41.186,49.892l40.181,19.421c31.476,15.068,48.218,39.847,48.218,73.666,0,53.575-37.168,91.078-89.4,91.078-43.53,0-81.033-19.086-81.033-19.086l27.457-77.014s6.7,82.037,62.616,82.037c24.444,0,38.507-20.091,38.507-41.856,0-27.123-15.738-42.86-40.181-55.919L71.512,463.767c-22.769-12.39-36.164-34.489-36.164-64.626,0-46.878,31.81-77.684,78.689-77.684,32.48,0,55.249,8.037,75.34,19.086L162.925,397.8c.335-1-10.38-64.625-57.929-64.625C83.9,333.177,70.508,347.24,70.508,366.661Z"/><path class="a" d="M266.057,323.8V443.676c13.394-13.394,30.136-21.765,50.227-21.765s38.507,11.72,38.507,33.485V561.542c0,16.742,0,23.439,11.72,33.485H292.174c11.72-10.045,11.72-16.743,11.72-33.485V468.789c0-13.395-6.7-21.765-20.091-21.765a26.467,26.467,0,0,0-17.747,6.7v107.82c0,16.742,0,23.439,11.72,33.485H203.44c11.72-10.045,11.72-16.743,11.72-33.485V391.775c0-16.073-2.009-25.783-18.416-33.485C226.544,358.289,252.663,345.565,266.057,323.8Z"/><path class="a" d="M435.823,414.209V561.542c0,16.742,0,23.439,11.72,33.485H373.207c11.72-10.045,11.72-16.743,11.72-33.485V482.183c0-16.073-2.009-25.783-18.416-33.485C396.311,448.7,422.429,435.974,435.823,414.209Zm-31.476-70.317a31.475,31.475,0,1,1-31.476,31.475A31.439,31.439,0,0,1,404.347,343.892Z"/><path class="a" d="M445.863,435.974,463.61,382.4c10.38-31.811,18.416-58.6,46.208-58.6,19.086,0,33.15,14.063,33.15,31.476s-14.063,31.476-29.8,31.476c-15.068,0-16.742-8.706-28.127-8.706-8.706,0-13.729,7.7-13.729,21.095,0,18.416,15.068,25.114,35.159,25.114h34.824v11.72H516.516V561.542c0,16.742,0,23.439,11.72,33.485H453.9c11.72-10.045,11.72-16.743,11.72-33.485V435.974Z"/><path class="a" d="M544.306,435.974l70.988-75.341v63.621h24.778v11.72H615.294V537.1c0,18.416,1,37.5,22.1,37.5,9.041,0,19.086-4.019,24.778-20.761,0,31.81-18.751,46.878-47.548,46.878-33.485,0-50.227-25.114-50.227-63.621V435.974Z"/></svg>