<svg xmlns="http://www.w3.org/2000/svg" viewBox="0 0 662.024 20.52"><defs><style>.a{fill:#fff;}</style></defs><title>night-shift-assets</title><path class="a" d="M220.057,1.065a9.183,9.183,0,1,1,0,18.365c-.2,0-.414-.008-.635-.023a13.572,13.572,0,0,1-.344-18.287,9.173,9.173,0,0,1,.979-.054m110.955,0a9.183,9.183,0,1,1-9.183,9.183,9.193,9.193,0,0,1,9.183-9.183m-221.42.017a9.183,9.183,0,0,1,0,18.338V1.084m332.375.005c.2,0,.414.008.635.023a13.572,13.572,0,0,1,.344,18.287,9.182,9.182,0,1,1-.979-18.311M552.432,1.1V19.435a9.183,9.183,0,0,1,0-18.338M2.654,1.3a9.224,9.224,0,0,1,7.132,8.949A9.162,9.162,0,0,1,2.96,19.129a14.165,14.165,0,0,0,2.985-8.721A14.117,14.117,0,0,0,2.654,1.3m656.41.088a14.236,14.236,0,0,0,.306,17.827,9.183,9.183,0,0,1-.306-17.827m2.6-1.39-1.356.146a10.181,10.181,0,0,0,.351,20.273l1.361.1-.974-.955A13.232,13.232,0,0,1,660.728.988l.94-.988ZM0,0,.974.955a13.144,13.144,0,0,1,3.972,9.453A13.182,13.182,0,0,1,1.3,19.531l-.94.988,1.357-.146a10.16,10.16,0,0,0,9.074-10.121A10.217,10.217,0,0,0,1.361.1L0,0ZM220.057.065a10.324,10.324,0,0,0-1.289.084l-.185.023L218.46.31a14.573,14.573,0,0,0,.375,19.929l.129.133.185.017c.3.026.6.042.908.042a10.183,10.183,0,1,0,0-20.365Zm110.955,0A10.183,10.183,0,1,0,341.194,10.25,10.195,10.195,0,0,0,331.012.068Zm-221.92,0h-.5V20.436h.5a10.183,10.183,0,0,0,0-20.365ZM553.432.083h-.5a10.183,10.183,0,1,0,0,20.365h.5V.083ZM441.966.09a10.183,10.183,0,0,0,0,20.365,10.324,10.324,0,0,0,1.289-.084l.185-.023.124-.138A14.573,14.573,0,0,0,443.189.281L443.06.148l-.185-.017c-.3-.026-.6-.042-.908-.042Z"/></svg>