<svg xmlns="http://www.w3.org/2000/svg" viewBox="0 0 707.564 50.667"><defs><style>.a{fill:none;stroke:#fff;stroke-miterlimit:10;}</style></defs><title>night-shift-assets</title><polygon class="a" points="371.283 0.5 371.283 8.778 346.45 8.778 305.061 50.167 288.83 50.167 288.83 25.333 239.163 25.333 214.33 50.167 58.441 50.167 58.441 8.778 17.056 50.167 0.5 50.167 0.5 41.889 17.056 41.889 58.441 0.5 66.719 0.5 66.719 41.889 108.108 0.5 116.386 0.5 74.997 41.889 98.798 41.889 123.631 17.056 131.909 17.056 107.076 41.889 130.57 41.889 171.959 0.5 205.07 0.5 205.07 8.778 171.959 8.778 138.848 41.889 196.793 41.889 196.793 33.611 163.682 33.611 163.682 25.333 196.793 25.333 205.07 33.611 205.07 41.889 214.33 41.889 255.719 0.5 263.996 0.5 247.441 17.056 288.83 17.056 288.83 0.5 297.108 0.5 297.108 41.889 305.061 41.889 338.172 8.778 305.061 8.778 305.061 0.5 371.283 0.5"/><path class="a" d="M140.187.5l-8.278,8.278h8.278L148.465.5Z"/><polygon class="a" points="633.672 0.5 633.672 8.778 600.561 8.778 559.172 50.167 514.898 50.167 514.898 25.333 465.231 25.333 440.398 50.167 358.721 50.167 358.721 41.889 416.662 41.889 433.218 25.333 383.554 25.333 375.277 17.055 391.829 0.5 441.496 0.5 441.496 8.778 391.829 8.778 383.554 17.055 433.218 17.055 441.496 25.333 424.94 41.889 440.398 41.889 481.787 0.5 490.065 0.5 473.509 17.055 514.898 17.055 514.898 0.5 523.176 0.5 523.176 41.889 529.94 41.889 554.774 17.055 563.052 17.055 538.218 41.889 559.172 41.889 600.561 0.5 633.672 0.5"/><path class="a" d="M571.329.5l-8.278,8.278h8.278L579.607.5Z"/><path class="a" d="M600.561,17.055v8.278h24.833V17.055Z"/><path class="a" d="M624.288,50.167V41.889h16.555L673.953,8.779H640.843V.5h66.221V8.779H682.231L640.843,50.167Z"/></svg>