<svg xmlns="http://www.w3.org/2000/svg" viewBox="0 0 359.965 130.66"><defs><style>.a{fill:none;stroke:#fff;stroke-miterlimit:10;}</style></defs><title>night-shift-assets</title><path class="a" d="M356.32,50.732S324.341,37.72,296.773,37.058s-43.888,11.027-43.888,11.027a18.477,18.477,0,0,1,1.029,5.808c.147,3.676,0,7.425,0,7.425s15.512-11.542,32.273-13.747,35.434,1.6,35.434,1.6-28.377.9-42.933,9.865-24.407,23.525-24.407,23.525,16.32,3.97,25.436,13.968,9.263,20.143,6.322,31.023c0,0-1.029-17.791-10.88-23.819s-23.672-6.469-38.081-4.7-33.469,13.31-57.048-5.587c-20-16.026-18.232-31.023-18.232-31.023s-3.088,0-4.264.882-3.235,2.205-3.235,2.205,3.676,22.055,22.2,34.405,29.259,14.7,32.935,15.438,16.32,3.97,21.172,4.852c0,0-15.623,4.991-44.991-7.793-25-10.88-44.991-37.2-44.991-37.2s-25,15.732-44.256,17.2-40.727.735-50.137-5.881c0,0,10.733,3.088,34.552,0s37.346-13.821,37.346-13.821,34.846-22.79,46.756-27.054,21.172-7.352,32.2-5.881c0,0-18.085,10.292-18.82,24.554s11.468,22.5,24.113,25.877,27.2,1.176,37.787-10.439c0,0-6.616,3.529-11.174,3.823s-21.025,1.764-31.317-5.44-9.7-15.438-9.116-18.379,2.058-12.351,12.718-15.144,18.158,1.176,20.952,3.235c0,0-10.733-2.058-16.026,2.647s-4.264,7.94-1.764,11.468,10,8.675,23.672,5.881,11.027-17.055,9.851-18.526-5.44-8.822-21.76-13.086a85.738,85.738,0,0,0-47.344,1.176,250.654,250.654,0,0,0-57.489,27.936C88.579,80.212,74.611,80.8,63.289,79.771S25.8,74.331.36,47.865c0,0,24.26,17.5,46.756,21.613s40.58-2.205,53.813-12.056S135.04,35.368,154.007,28.9s33.229-10.733,60.282-6.763S243.4,34.191,243.4,34.191s8.381-4.7,12.2-5.734,8.822-1.911,8.822-1.911-11.468-9.851-35.287-15.732-63.958,1.911-70.574,4.264-23.231,7.793-23.231,7.793,9.7-10.586,39.4-16.908S218.259-1.39,245.313,3.9,285.6,17.724,298.538,27.722C298.538,27.722,330.443,31.986,356.32,50.732Z"/></svg>