<?xml version="1.0" encoding="utf-8"?>
<!-- Generator: Adobe Illustrator 21.1.0, SVG Export Plug-In . SVG Version: 6.00 Build 0)  -->
<svg version="1.1" id="Layer_1" xmlns="http://www.w3.org/2000/svg" xmlns:xlink="http://www.w3.org/1999/xlink" x="0px" y="0px"
	 viewBox="0 0 360 130.7" style="enable-background:new 0 0 360 130.7;" xml:space="preserve">
<style type="text/css">
	.st0{fill:none;stroke:#FFFFFF;stroke-miterlimit:10;}
</style>
<title>night-shift-assets</title>
<path class="st0" d="M3.6,50.7c0,0,32-13,59.5-13.7s43.9,11,43.9,11c-0.7,1.9-1,3.8-1,5.8c-0.1,3.7,0,7.4,0,7.4S90.5,49.8,73.8,47.6
	s-35.4,1.6-35.4,1.6s28.4,0.9,42.9,9.9s24.4,23.5,24.4,23.5s-16.3,4-25.4,14s-9.3,20.1-6.3,31c0,0,1-17.8,10.9-23.8
	s23.7-6.5,38.1-4.7c14.4,1.8,33.5,13.3,57-5.6c20-16,18.2-31,18.2-31s3.1,0,4.3,0.9c1.2,0.9,3.2,2.2,3.2,2.2s-3.7,22.1-22.2,34.4
	s-29.3,14.7-32.9,15.4s-16.3,4-21.2,4.9c0,0,15.6,5,45-7.8c25-10.9,45-37.2,45-37.2s25,15.7,44.3,17.2c19.3,1.5,40.7,0.7,50.1-5.9
	c0,0-10.7,3.1-34.6,0c-23.8-3.1-37.3-13.8-37.3-13.8S207,49.9,195.1,45.7s-21.2-7.4-32.2-5.9c0,0,18.1,10.3,18.8,24.6
	s-11.5,22.5-24.1,25.9s-27.2,1.2-37.8-10.4c0,0,6.6,3.5,11.2,3.8c4.6,0.3,21,1.8,31.3-5.4c10.3-7.2,9.7-15.4,9.1-18.4
	s-2.1-12.4-12.7-15.1s-18.2,1.2-21,3.2c0,0,10.7-2.1,16,2.6s4.3,7.9,1.8,11.5c-2.5,3.5-10,8.7-23.7,5.9s-11-17.1-9.9-18.5
	s5.4-8.8,21.8-13.1c15.6-4.1,32-3.7,47.3,1.2c20.3,6.8,39.6,16.2,57.5,27.9c22.8,14.9,36.8,15.4,48.1,14.4s37.5-5.4,62.9-31.9
	c0,0-24.3,17.5-46.8,21.6s-40.6-2.2-53.8-12.1c-13.2-9.9-34.1-22.1-53.1-28.5s-33.2-10.7-60.3-6.8s-29.1,12.1-29.1,12.1
	s-8.4-4.7-12.2-5.7c-3.8-1-8.8-1.9-8.8-1.9s11.5-9.9,35.3-15.7s64,1.9,70.6,4.3s23.2,7.8,23.2,7.8S214.9,12.3,185.2,6
	c-29.7-6.3-43.5-7.4-70.6-2.1S74.4,17.7,61.4,27.7C61.4,27.7,29.5,32,3.6,50.7z"/>
</svg>
