<svg xmlns="http://www.w3.org/2000/svg" viewBox="0 0 95.594 918.628"><defs><style>.a{fill:none;stroke:#fff;stroke-miterlimit:10;}</style></defs><title>night-shift-assets</title><path class="a" d="M75.37,890.338.5,917.911V879.369l46.693-14.592L.5,851.595V811.846l46.794-13.184L.5,784.775V748.85l74.87,27.875V819.9L31.192,833.078,75.37,846.16Z"/><path class="a" d="M76.88,708.988v4.83c0,37.938-16.906,42.567-28.177,42.567h-1.61c-11.17,0-27.372-4.528-27.372-42.467v-4.83c0-39.347,17.107-43.07,29.888-43.07h2.113v58.366c4.729-.5,9.358-3.724,9.358-13.484,0-11.17-4.83-12.579-5.937-12.78v-32h.1C62.992,666.119,76.88,670.446,76.88,708.988ZM33.81,711.2c0,9.358,3.019,12.177,6.943,12.981V698.321C36.728,699.025,33.81,702.246,33.81,711.2Z"/><path class="a" d="M.5,627.369H28.375c-1.61-1.812-7.85-10.062-7.85-25.561v-2.415c0-24.554,13.385-31.2,26.266-31.2h2.314c13.183,0,26.969,7.447,26.969,32.605v2.414c0,14.391-5.534,22.441-7.346,24.957a56.236,56.236,0,0,0,6.642,1.208v30.491H.5Zm47.9,0c5.837,0,11.674-4.327,11.674-13.183v-.5c0-9.561-6.139-12.58-11.674-12.58H48c-5.735,0-11.572,2.919-11.572,12.479v.6c0,9.157,5.736,13.183,11.572,13.183Z"/><path class="a" d="M.5,529.146V472.188c0-42.869,16.806-55.146,35.423-55.146h3.119c17.812,0,36.328,9.862,36.328,55.146v56.958Zm53.234-33.914V477.32c0-23.044-10.365-25.057-15.8-25.057h-.6c-5.333,0-15.2,2.113-15.2,25.057v17.912Z"/><path class="a" d="M76.88,364.908v4.83c0,37.938-16.906,42.567-28.177,42.567h-1.61c-11.17,0-27.372-4.528-27.372-42.467v-4.83c0-39.347,17.107-43.07,29.888-43.07h2.113V380.3c4.729-.5,9.358-3.723,9.358-13.485,0-11.17-4.83-12.579-5.937-12.78v-32h.1C62.992,322.039,76.88,326.366,76.88,364.908Zm-43.07,2.214c0,9.358,3.019,12.176,6.943,12.981V354.241C36.728,354.945,33.81,358.165,33.81,367.122Z"/><path class="a" d="M57.659,318.309h-.705V285.4c2.214-.1,5.837-1.208,5.837-8.353v-.2c0-6.642-1.912-8.151-4.025-8.151h-.1c-2.415,0-3.824,1.409-4.025,8.755l-.5,13.284c-.8,21.837-8.855,26.768-17.107,26.768h-.7c-9.46,0-16.6-6.742-16.6-36.832V273.93c0-30.692,7.648-37.133,16.5-37.133h.8v32.1c-1.51.1-4.428.7-4.428,8.151v.2c0,6.743,1.208,8.051,3.221,8.051h.1c1.912,0,3.32-1.51,3.622-8.755l.5-13.284c.8-23.749,6.742-28.68,17.51-28.68h.8c9.762,0,18.517,5.535,18.517,39.146v7.044C76.88,314.384,64.8,318.309,57.659,318.309Z"/><path class="a" d="M17.507,196.238v32.5H.5v-32.5Zm57.863,0v32.5H21.23v-32.5Z"/><path class="a" d="M95.094,147.429c0,33.51-12.479,39.146-19.321,39.146h-.4v-32.6c1.309-.3,3.925-1.509,3.925-10.566v-.3c0-9.661-5.032-13.384-11.875-13.384H65.206c2.415,2.516,8.051,8.654,8.051,26.365V158.1c0,24.353-13.283,31.8-25.762,31.8h-1.51c-12.377,0-25.358-7.447-25.358-31.1v-2.314c0-17.309,5.031-23.85,7.145-26.667H21.23v-32.6H67.219c12.076,0,27.875,7.246,27.875,41.762ZM37.13,144.41c0,9.661,4.83,12.78,9.661,12.78h.4c5.031,0,10.365-3.22,10.365-12.78v-.5c0-9.761-5.233-13.988-10.365-13.988h-.3c-4.932,0-9.762,4.227-9.762,13.988Z"/><path class="a" d="M21.23,89.257v-32.4h9.861c-2.415-2.415-11.069-11.472-11.069-29.083v-.6C20.022,5.431,33.1.5,40.049.5H75.37V33H50.413c-6.138,0-11.271,2.817-11.271,11.573,0,8.352,5.233,12.176,11.472,12.176H75.37v32.5Z"/></svg>